<?xml version="1.0" encoding="UTF-8" standalone="no"?>
<!-- Created with Inkscape (http://www.inkscape.org/) -->

<svg
   version="1.1"
   id="svg1"
   width="664"
   height="694.66669"
   viewBox="0 0 664 694.66669"
   sodipodi:docname="logo_hyperio_transparent_simple.svg"
   inkscape:version="1.3.2 (091e20e, 2023-11-25, custom)"
   xmlns:inkscape="http://www.inkscape.org/namespaces/inkscape"
   xmlns:sodipodi="http://sodipodi.sourceforge.net/DTD/sodipodi-0.dtd"
   xmlns="http://www.w3.org/2000/svg"
   xmlns:svg="http://www.w3.org/2000/svg">
  <defs
     id="defs1" />
  <sodipodi:namedview
     id="namedview1"
     pagecolor="#ffffff"
     bordercolor="#000000"
     borderopacity="0.25"
     inkscape:showpageshadow="2"
     inkscape:pageopacity="0.0"
     inkscape:pagecheckerboard="0"
     inkscape:deskcolor="#d1d1d1"
     inkscape:zoom="2.618522"
     inkscape:cx="332.05755"
     inkscape:cy="347.33334"
     inkscape:window-width="3840"
     inkscape:window-height="2054"
     inkscape:window-x="1501"
     inkscape:window-y="2581"
     inkscape:window-maximized="1"
     inkscape:current-layer="g1" />
  <g
     inkscape:groupmode="layer"
     inkscape:label="Image"
     id="g1">
    <path
       style="fill:#ffffff;fill-opacity:1"
       d="M 204.37739,691.4783 C 195.72367,688.65007 175.50588,678.46127 159.92197,669.07488 115.74547,642.46682 73.546213,601.07734 46.716319,558.0416 36.891407,542.28222 23.257841,512.8615 16.878494,493.65271 4.6630554,456.87092 -0.5057605,417.03098 2.4483549,382.42883 8.0164674,317.2084 32.443007,261.78886 75.019186,217.77833 114.82486,176.63164 175.03162,146.48831 218,146.19305 c 16.45806,-0.1131 22.46194,2.24371 34.17544,13.41546 12.09138,11.53214 34.67405,43.92979 49.28651,70.70762 2.49593,4.57386 4.95905,8.17386 5.4736,8 0.51456,-0.17387 12.31299,-23.11612 26.21873,-50.98279 C 392.25768,68.892021 434.85578,8.3249252 463.96626,1.3414276 475.62825,-1.4562409 484.81293,2.0465665 506,17.372041 603.52993,87.919439 662.56601,203.72744 662.65128,324.66668 c 0.0887,125.8466 -61.57002,242.51681 -163.3305,309.05273 -32.94154,21.53878 -60.39638,32.87706 -82.28022,33.98005 -12.05394,0.60754 -13.47033,0.40323 -20.27109,-2.92407 -4.76033,-2.32902 -10.42144,-6.92673 -16.22384,-13.17631 -10.14215,-10.9238 -29.82568,-40.11193 -44.51909,-66.01608 -5.48541,-9.67064 -10.28541,-17.57785 -10.66667,-17.57158 -0.38126,0.006 -4.69945,7.05627 -9.59597,15.66666 -31.51606,55.42009 -61.6235,94.38532 -81.01314,104.84765 -8.53054,4.60294 -21.47379,5.86114 -30.37337,2.95257 z"
       id="path1" />
  </g>
</svg>
